HIERARCHY
ROOT Hips
{
	OFFSET -0.001795 -0.223333 0.028219
	CHANNELS 6 Xposition Yposition Zposition Zrotation Yrotation Xrotation 
	JOINT LeftUpLeg
	{
		OFFSET 0.069520 -0.091406 -0.006815
		CHANNELS 3 Zrotation Yrotation Xrotation
		JOINT LeftLeg
		{
			OFFSET 0.034277 -0.375199 -0.004496
			CHANNELS 3 Zrotation Yrotation Xrotation
			JOINT LeftFoot
			{
				OFFSET -0.013596 -0.397961 -0.043693
				CHANNELS 3 Zrotation Yrotation Xrotation
				JOINT LeftToe
				{
					OFFSET 0.026358 -0.055791 0.119288
					CHANNELS 3 Zrotation Yrotation Xrotation
					End Site
					{
						OFFSET 0.000000 0.000000 0.000000
					}
				}
			}
		}
	}
	JOINT RightUpLeg
	{
		OFFSET -0.067670 -0.090522 -0.004320
		CHANNELS 3 Zrotation Yrotation Xrotation
		JOINT RightLeg
		{
			OFFSET -0.038290 -0.382569 -0.008850
			CHANNELS 3 Zrotation Yrotation Xrotation
			JOINT RightFoot
			{
				OFFSET 0.015774 -0.398415 -0.042312
				CHANNELS 3 Zrotation Yrotation Xrotation
				JOINT RightToe
				{
					OFFSET -0.025372 -0.048144 0.123348
					CHANNELS 3 Zrotation Yrotation Xrotation
					End Site
					{
						OFFSET 0.000000 0.000000 0.000000
					}
				}
			}
		}
	}
	JOINT Spine
	{
		OFFSET -0.002533 0.108963 -0.026696
		CHANNELS 3 Zrotation Yrotation Xrotation
		JOINT Spine1
		{
			OFFSET 0.005487 0.135180 0.001092
			CHANNELS 3 Zrotation Yrotation Xrotation
			JOINT Spine2
			{
				OFFSET 0.001457 0.052922 0.025425
				CHANNELS 3 Zrotation Yrotation Xrotation
				JOINT Neck
				{
					OFFSET -0.002778 0.213870 -0.042857
					CHANNELS 3 Zrotation Yrotation Xrotation
					JOINT Head
					{
						OFFSET 0.005152 0.064970 0.051349
						CHANNELS 3 Zrotation Yrotation Xrotation
						End Site
						{
							OFFSET 0.000000 0.000000 0.000000
						}
					}
				}
				JOINT LeftShoulder
				{
					OFFSET 0.078845 0.121749 -0.034090
					CHANNELS 3 Zrotation Yrotation Xrotation
					JOINT LeftArm
					{
						OFFSET 0.090977 0.030469 -0.008868
						CHANNELS 3 Zrotation Yrotation Xrotation
						JOINT LeftForeArm
						{
							OFFSET 0.259612 -0.012772 -0.027456
							CHANNELS 3 Zrotation Yrotation Xrotation
							JOINT LeftHand
							{
								OFFSET 0.249234 0.008986 -0.001171
								CHANNELS 3 Zrotation Yrotation Xrotation
								End Site
								{
									OFFSET 0.000000 0.000000 0.000000
								}
							}
						}
					}
				}
				JOINT RightShoulder
				{
					OFFSET -0.081759 0.118833 -0.038615
					CHANNELS 3 Zrotation Yrotation Xrotation
					JOINT RightArm
					{
						OFFSET -0.096012 0.032551 -0.009143
						CHANNELS 3 Zrotation Yrotation Xrotation
						JOINT RightForeArm
						{
							OFFSET -0.253742 -0.013329 -0.021401
							CHANNELS 3 Zrotation Yrotation Xrotation
							JOINT RightHand
							{
								OFFSET -0.255298 0.007772 -0.005559
								CHANNELS 3 Zrotation Yrotation Xrotation
								End Site
								{
									OFFSET 0.000000 0.000000 0.000000
								}
							}
						}
					}
				}
			}
		}
	}
}
MOTION
Frames: 7
Frame Time: 0.050000
0.022476 0.949362 -0.018420 -2.016947 -1.437859 3.206617 5.731215 0.054539 3.590791 -1.431881 0.361294 -9.146629 4.379365 12.037517 15.092070 0.000000 0.000000 0.000000 -1.246801 -0.049258 1.016887 -0.965778 -0.195538 -6.178953 -1.910716 -9.666827 15.638842 0.000000 0.000000 0.000000 -1.511425 0.043839 -0.492705 2.076628 0.398923 -30.910268 -3.374635 -2.410487 30.762757 6.410528 -3.583628 -19.812934 0.000000 0.000000 0.000000 -11.950970 9.480622 -4.636446 -50.148271 -4.662422 -6.410021 -8.298486 -33.413100 4.791403 0.000000 0.000000 0.000000 -19.019751 0.219787 1.093207 2.233177 42.502142 -3.346341 -112.822824 17.207072 -23.646335 0.000000 0.000000 0.000000 
0.022820 0.949403 -0.018712 -2.113916 -1.728265 3.224690 5.791677 0.058876 3.650028 -1.445187 0.365933 -9.219381 4.524448 12.234460 15.154853 0.000000 0.000000 0.000000 -1.271407 -0.043267 0.969958 -0.818619 -0.204825 -6.230544 -1.748382 -9.439111 15.678227 0.000000 0.000000 0.000000 -1.649488 0.042928 -0.370540 2.332871 0.354438 -30.893581 -3.301642 -2.340041 30.675268 6.377255 -3.521099 -20.213266 0.000000 0.000000 0.000000 -11.941452 9.545123 -4.656764 -49.677340 -4.613766 -6.370359 -8.324006 -33.678479 4.841130 0.000000 0.000000 0.000000 -18.703581 0.386964 1.135173 2.550017 42.989406 -3.323137 -112.113370 16.651888 -22.594744 0.000000 0.000000 0.000000 
0.023156 0.949625 -0.018891 -2.144945 -1.818299 3.276665 5.916972 0.061291 3.830053 -1.665867 0.382655 -9.628466 4.517659 12.242809 15.354546 0.000000 0.000000 0.000000 -1.303411 -0.041753 0.972773 -0.752676 -0.214563 -6.381460 -1.674154 -9.355744 15.811586 0.000000 0.000000 0.000000 -1.870900 0.044567 -0.275371 2.582960 0.309190 -30.856440 -3.161671 -2.296971 30.536322 6.207059 -3.374037 -20.425642 0.000000 0.000000 0.000000 -11.795275 9.700898 -4.720915 -49.480426 -4.733888 -6.283070 -8.451651 -34.351680 4.995759 0.000000 0.000000 0.000000 -18.176043 0.452138 1.136837 3.276309 43.681378 -3.173313 -111.672893 15.980365 -21.373032 0.000000 0.000000 0.000000 
0.023450 0.950034 -0.018838 -2.254841 -1.803384 3.251849 6.065684 0.056797 3.900022 -1.746602 0.386164 -9.697235 4.488480 12.215036 15.451369 0.000000 0.000000 0.000000 -1.201367 -0.045623 0.964947 -0.750201 -0.211490 -6.308336 -1.651254 -9.348454 15.955791 0.000000 0.000000 0.000000 -2.075786 0.044319 -0.122745 2.905486 0.247516 -30.769549 -3.096878 -2.155282 30.429883 5.959996 -3.178807 -20.443369 0.000000 0.000000 0.000000 -11.546687 9.747479 -4.742333 -49.213900 -4.762604 -6.225341 -8.877488 -35.926647 5.382894 0.000000 0.000000 0.000000 -17.341534 0.663140 1.118494 4.261525 43.971765 -2.873258 -111.526223 15.345000 -20.224887 0.000000 0.000000 0.000000 
0.023686 0.950226 -0.018499 -2.316531 -1.639250 3.195983 6.235971 0.052331 4.069233 -1.925683 0.393099 -9.898424 4.375861 12.071802 15.501816 0.000000 0.000000 0.000000 -1.177229 -0.067812 1.195416 -0.673872 -0.225063 -6.533128 -1.687787 -9.424665 16.123004 0.000000 0.000000 0.000000 -2.211724 0.047154 -0.156429 3.135067 0.191582 -30.515746 -3.049147 -2.020007 30.215627 5.733117 -2.974275 -20.513670 0.000000 0.000000 0.000000 -11.496471 9.967222 -4.882552 -49.162317 -4.538583 -6.281411 -9.741349 -38.415776 6.107217 0.000000 0.000000 0.000000 -16.302397 0.754033 1.062889 5.804172 44.554187 -2.395687 -112.191993 15.090852 -19.737605 0.000000 0.000000 0.000000 
0.023927 0.950284 -0.017901 -2.459966 -1.446523 3.009190 6.543073 0.047230 4.402849 -2.180649 0.400966 -10.109151 4.250523 11.905026 15.478220 0.000000 0.000000 0.000000 -1.131856 -0.088352 1.390286 -0.473641 -0.228406 -6.395367 -1.763191 -9.528547 16.149308 0.000000 0.000000 0.000000 -2.284974 0.047667 -0.190934 3.211881 0.158327 -30.197963 -2.964514 -1.889256 29.991235 5.681828 -2.861887 -20.729884 0.000000 0.000000 0.000000 -11.435842 10.074219 -4.967471 -49.188984 -4.217187 -6.381379 -11.033292 -41.186203 7.091153 0.000000 0.000000 0.000000 -15.249492 0.939749 1.028201 7.470412 44.637708 -1.834428 -113.239181 15.474378 -20.312840 0.000000 0.000000 0.000000 
0.024204 0.950261 -0.017172 -2.490833 -1.355325 2.786918 6.728399 0.047704 4.666792 -2.461044 0.406056 -10.086296 4.184916 11.807611 15.397362 0.000000 0.000000 0.000000 -1.208072 -0.112038 1.684895 -0.299581 -0.235842 -6.377970 -1.791935 -9.561343 16.141302 0.000000 0.000000 0.000000 -2.433370 0.050144 -0.273951 3.284090 0.126933 -29.895099 -2.835919 -1.718413 29.785574 5.532200 -2.701673 -20.863578 0.000000 0.000000 0.000000 -11.549641 10.342146 -5.149030 -49.189570 -3.956168 -6.459816 -12.572182 -43.750384 8.214550 0.000000 0.000000 0.000000 -14.337552 1.308215 1.046882 8.740224 44.746716 -1.399226 -114.124020 16.026153 -21.138567 0.000000 0.000000 0.000000 
